<svg width="20" height="20" viewBox="0 0 20 20" fill="none" xmlns="http://www.w3.org/2000/svg">
<circle cx="9.78125" cy="9.75" r="9.75" fill="black"/>
<path d="M10.9144 5.63312C10.7481 5.46687 10.525 5.375 10.2931 5.375H7.15625C6.675 5.375 6.28125 5.76875 6.28125 6.25V13.25C6.28125 13.7312 6.67062 14.125 7.15187 14.125H12.4062C12.8875 14.125 13.2812 13.7312 13.2812 13.25V8.36312C13.2812 8.13125 13.1894 7.90812 13.0231 7.74625L10.9144 5.63312ZM11.0938 12.375H8.46875C8.22812 12.375 8.03125 12.1781 8.03125 11.9375C8.03125 11.6969 8.22812 11.5 8.46875 11.5H11.0938C11.3344 11.5 11.5312 11.6969 11.5312 11.9375C11.5312 12.1781 11.3344 12.375 11.0938 12.375ZM11.0938 10.625H8.46875C8.22812 10.625 8.03125 10.4281 8.03125 10.1875C8.03125 9.94688 8.22812 9.75 8.46875 9.75H11.0938C11.3344 9.75 11.5312 9.94688 11.5312 10.1875C11.5312 10.4281 11.3344 10.625 11.0938 10.625ZM10.2188 8V6.03125L12.625 8.4375H10.6562C10.4156 8.4375 10.2188 8.24062 10.2188 8Z" fill="white"/>
</svg>
